<svg width="24" height="21" viewBox="0 0 24 21" fill="none" xmlns="http://www.w3.org/2000/svg">
<path d="M11.6891 0.637038C11.2694 1.04731 11.0384 1.59358 11.0384 2.17516C11.0384 2.75667 11.2694 3.30294 11.6891 3.71321L16.4052 8.32481H2.24973C1.02315 8.32488 0 9.30058 0 10.5C0 11.6995 1.02316 12.6752 2.24974 12.6752H16.4052L11.689 17.2868C10.8217 18.1348 10.8217 19.5148 11.6889 20.3629C12.109 20.7737 12.6677 21 13.2619 21C13.8561 21 14.4147 20.7738 14.8348 20.3629L23.3483 12.0381C23.7686 11.6273 24 11.081 24 10.5C24 9.91892 23.7686 9.37271 23.3484 8.96185L14.8349 0.637104C14.4148 0.226304 13.8562 0 13.262 0C12.6677 6.56334e-05 12.1092 0.226304 11.6891 0.637038Z" fill="url(#paint0_linear_243_50)"/>
<defs>
<linearGradient id="paint0_linear_243_50" x1="-38.1554" y1="46.9047" x2="2.31328" y2="-38.6846" gradientUnits="userSpaceOnUse">
<stop offset="0.426819" stop-color="#0057D9"/>
<stop offset="0.691061" stop-color="#12C6FF"/>
</linearGradient>
</defs>
</svg>
