<svg width="15" height="15" viewBox="0 0 15 15" fill="none" xmlns="http://www.w3.org/2000/svg">
<path fill-rule="evenodd" clip-rule="evenodd" d="M14.1573 2.89773L9.77531 0.227274H9.71906C9.49434 0.075758 9.23221 0 8.93258 0C8.63296 0 8.35206 0.075758 8.08988 0.227274L0.842696 4.54546C0.580524 4.69698 0.374532 4.90531 0.224719 5.17046C0.0749063 5.43562 0 5.70077 0 5.96592V10.7386C0 11.0416 0.0749063 11.3258 0.224719 11.5909C0.374532 11.8561 0.580524 12.0455 0.842696 12.1591L5.22472 14.7727C5.48689 14.9242 5.76779 15 6.06742 15C6.36704 15 6.64794 14.9242 6.91012 14.7727L14.1573 10.5113C14.4195 10.3598 14.6255 10.1515 14.7753 9.88641C14.9251 9.62121 15 9.33714 15 9.03411V4.31819C15 4.01516 14.9251 3.75001 14.7753 3.52274C14.6255 3.25759 14.4195 3.04925 14.1573 2.89773ZM2.07865 5.45456L8.82023 1.47727C8.89513 1.43939 8.97004 1.43939 9.04494 1.47727L12.8651 3.75001L6.17978 7.67047C6.10487 7.74623 6.02996 7.74623 5.95506 7.67047L2.07865 5.45456ZM5.33708 13.2386L1.51686 10.9659C1.44195 10.9281 1.4045 10.8523 1.4045 10.7386V6.64774L5.33708 8.97729V13.2386ZM6.79776 8.97729L6.91012 8.92047L13.5955 5.00001V9.09093C13.5955 9.16669 13.5393 9.2235 13.427 9.26138L6.79776 13.2386V8.97729Z" fill="#ED9B60"/>
</svg>
