<svg width="24" height="24" viewBox="0 0 24 24" fill="none" xmlns="http://www.w3.org/2000/svg">
<path d="M8.16699 0.5H2.66699C2.00418 0.500737 1.36872 0.764366 0.90004 1.23305C0.431358 1.70173 0.16773 2.33719 0.166992 3V8.5C0.16773 9.16281 0.431358 9.79827 0.90004 10.267C1.36872 10.7356 2.00418 10.9993 2.66699 11H8.16699C8.82981 10.9993 9.46526 10.7356 9.93394 10.267C10.4026 9.79827 10.6663 9.16281 10.667 8.5V3C10.6663 2.33719 10.4026 1.70173 9.93394 1.23305C9.46526 0.764366 8.82981 0.500737 8.16699 0.5ZM7.66699 8H3.16699V3.5H7.66699V8Z" fill="#ED9B60"/>
<path d="M8.16699 13H2.66699C2.00418 13.0007 1.36872 13.2644 0.90004 13.733C0.431358 14.2017 0.16773 14.8372 0.166992 15.5V21C0.16773 21.6628 0.431358 22.2983 0.90004 22.767C1.36872 23.2356 2.00418 23.4993 2.66699 23.5H8.16699C8.82981 23.4993 9.46526 23.2356 9.93394 22.767C10.4026 22.2983 10.6663 21.6628 10.667 21V15.5C10.6663 14.8372 10.4026 14.2017 9.93394 13.733C9.46526 13.2644 8.82981 13.0007 8.16699 13ZM7.66699 20.5H3.16699V16H7.66699V20.5Z" fill="#ED9B60"/>
<path d="M20.667 0.5H15.167C14.5042 0.500737 13.8687 0.764366 13.4 1.23305C12.9314 1.70173 12.6677 2.33719 12.667 3V8.5C12.6677 9.16281 12.9314 9.79827 13.4 10.267C13.8687 10.7356 14.5042 10.9993 15.167 11H20.667C21.3298 10.9993 21.9653 10.7356 22.4339 10.267C22.9026 9.79827 23.1663 9.16281 23.167 8.5V3C23.1663 2.33719 22.9026 1.70173 22.4339 1.23305C21.9653 0.764366 21.3298 0.500737 20.667 0.5ZM20.167 8H15.667V3.5H20.167V8Z" fill="#ED9B60"/>
<path d="M14.167 19C14.5648 19 14.9463 18.8419 15.2276 18.5606C15.5089 18.2793 15.667 17.8978 15.667 17.5V14.5C15.667 14.1022 15.509 13.7206 15.2277 13.4393C14.9463 13.158 14.5648 13 14.167 13C13.7692 13 13.3876 13.158 13.1063 13.4393C12.825 13.7206 12.667 14.1022 12.667 14.5V17.5C12.667 17.8978 12.8251 18.2793 13.1064 18.5606C13.3877 18.8419 13.7692 19 14.167 19Z" fill="#ED9B60"/>
<path d="M21.667 15H20.167V14.5C20.167 14.1022 20.009 13.7206 19.7277 13.4393C19.4463 13.158 19.0648 13 18.667 13C18.2692 13 17.8876 13.158 17.6063 13.4393C17.325 13.7206 17.167 14.1022 17.167 14.5V20.5H14.167C13.7692 20.5 13.3876 20.658 13.1063 20.9393C12.825 21.2206 12.667 21.6022 12.667 22C12.667 22.3978 12.825 22.7794 13.1063 23.0607C13.3876 23.342 13.7692 23.5 14.167 23.5H18.667C19.0648 23.5 19.4463 23.3419 19.7276 23.0606C20.0089 22.7793 20.167 22.3978 20.167 22V18H21.667C22.0648 18 22.4463 17.842 22.7277 17.5607C23.009 17.2794 23.167 16.8978 23.167 16.5C23.167 16.1022 23.009 15.7206 22.7277 15.4393C22.4463 15.158 22.0648 15 21.667 15Z" fill="#ED9B60"/>
</svg>
