<svg width="37" height="35" viewBox="0 0 37 35" fill="none" xmlns="http://www.w3.org/2000/svg">
<path d="M18.1836 0C8.15664 0 0 7.72734 0 17.2266C0 26.7258 8.15664 34.4531 18.1836 34.4531C28.2105 34.4531 36.3672 26.7258 36.3672 17.2266C36.3672 7.72734 28.2105 0 18.1836 0ZM18.1836 31.5844C9.82656 31.5844 3.02812 25.1437 3.02812 17.2266C3.02812 9.30938 9.82656 2.86875 18.1836 2.86875C26.5406 2.86875 33.3391 9.30938 33.3391 17.2266C33.3391 25.1437 26.5406 31.5844 18.1836 31.5844Z" fill="url(#paint0_angular_203_102)"/>
<path d="M25.7242 15.7922H19.6977V10.0828C19.6977 9.28828 19.0223 8.64844 18.1836 8.64844C17.3449 8.64844 16.6695 9.28828 16.6695 10.0828V15.7922H10.643C9.8043 15.7922 9.12891 16.432 9.12891 17.2266C9.12891 18.0211 9.8043 18.6609 10.643 18.6609H16.6695V24.3703C16.6695 25.1648 17.3449 25.8047 18.1836 25.8047C19.0223 25.8047 19.6977 25.1648 19.6977 24.3703V18.6609H25.7242C26.5629 18.6609 27.2383 18.0211 27.2383 17.2266C27.2383 16.432 26.5629 15.7922 25.7242 15.7922V15.7922Z" fill="url(#paint1_linear_203_102)"/>
<defs>
<radialGradient id="paint0_angular_203_102" cx="0" cy="0" r="1" gradientUnits="userSpaceOnUse" gradientTransform="translate(18.1836 17.2266) rotate(-153.269) scale(41.633 43.9459)">
<stop offset="0.0111783" stop-color="#00A3FF"/>
<stop offset="0.121497" stop-color="#307EF3"/>
<stop offset="0.248996" stop-color="#4185EA"/>
<stop offset="0.322089" stop-color="#17AAFD"/>
<stop offset="0.448217" stop-color="#1F78FC"/>
<stop offset="0.521508" stop-color="#17AAFD"/>
<stop offset="0.656888" stop-color="#307EF3"/>
<stop offset="0.788703" stop-color="#2DA5FF"/>
<stop offset="0.883176" stop-color="#007BED"/>
<stop offset="0.989583" stop-color="#168FFF"/>
</radialGradient>
<linearGradient id="paint1_linear_203_102" x1="-96.1328" y1="94.9531" x2="60" y2="-54.5" gradientUnits="userSpaceOnUse">
<stop offset="0.0212386" stop-color="#307EF3"/>
<stop offset="0.0424782" stop-color="#3FADFD"/>
<stop offset="0.360014" stop-color="#648FFF"/>
<stop offset="0.465112" stop-color="#74C5FF"/>
<stop offset="0.544875" stop-color="#0057D9"/>
<stop offset="0.663155" stop-color="#12C6FF"/>
<stop offset="0.860346" stop-color="#007BED"/>
<stop offset="0.991549" stop-color="#00A3FF"/>
</linearGradient>
</defs>
</svg>
