<svg width="26" height="23" viewBox="0 0 26 23" fill="none" xmlns="http://www.w3.org/2000/svg">
<path d="M14.5724 23C13.7951 23 13.0642 22.6954 12.5144 22.1422C11.3798 21.0002 11.3799 19.1421 12.5144 18.0002L16.0634 14.4288H3.12564C1.521 14.4288 0 13.1149 0 11.5C0 9.88503 1.52134 8.57122 3.12597 8.57122H16.0634L12.5144 4.99975C11.9653 4.44718 11.6628 3.71175 11.6628 2.92875C11.6628 2.14574 11.9653 1.41031 12.5145 0.857743C13.0641 0.304633 13.7949 0 14.5724 0C15.3497 0 16.0806 0.304633 16.6303 0.857743L25.1475 9.42896C25.6972 9.98187 26 10.7174 26 11.5C26 12.2826 25.6972 13.018 25.1474 13.5711L16.6302 22.1422C16.0805 22.6954 15.3497 23 14.5724 23ZM3.12597 9.94957C2.27658 9.94957 1.56278 10.6451 1.56278 11.5C1.56278 12.3549 2.27658 13.0503 3.12597 13.0503H17.7169C17.994 13.0503 18.2437 13.2183 18.3496 13.4758C18.4557 13.7333 18.397 14.0297 18.2012 14.2269L13.483 18.975C12.8824 19.5794 12.8824 20.5629 13.483 21.1675C13.774 21.4603 14.1608 21.6216 14.5723 21.6216C14.9838 21.6216 15.3706 21.4603 15.6616 21.1675L24.1788 12.5963C24.4699 12.3034 24.6301 11.9142 24.6301 11.5C24.6301 11.0859 24.4698 10.6966 24.1789 10.4039L15.6617 1.83246C15.3708 1.53965 14.9839 1.37842 14.5724 1.37842C14.1608 1.37842 13.774 1.53972 13.4831 1.83246C13.1927 2.12466 13.0327 2.51403 13.0327 2.92868C13.0327 3.34333 13.1927 3.73263 13.483 4.0249L18.2013 8.773C18.3971 8.97012 18.4557 9.26658 18.3497 9.52411C18.2437 9.78157 17.9941 9.94957 17.717 9.94957H3.12597Z" fill="url(#paint0_linear_244_58)"/>
<defs>
<linearGradient id="paint0_linear_244_58" x1="-41.335" y1="51.3718" x2="3.29468" y2="-41.9919" gradientUnits="userSpaceOnUse">
<stop offset="0.426819" stop-color="#0057D9"/>
<stop offset="0.691061" stop-color="#12C6FF"/>
</linearGradient>
</defs>
</svg>
