<svg width="32" height="23" viewBox="0 0 32 23" fill="none" xmlns="http://www.w3.org/2000/svg">
<path d="M20.5734 23C19.7961 23 19.0652 22.6954 18.5155 22.1422C17.3808 21.0002 17.3809 19.1421 18.5155 18.0002L22.0645 14.4288L3 14.5C1.39536 14.5 0 13.1149 0 11.5C0 9.88503 1.39536 8.5 3 8.5L22.0645 8.57122L18.5155 4.99975C17.9663 4.44718 17.6639 3.71175 17.6639 2.92875C17.6639 2.14574 17.9663 1.41031 18.5155 0.857744C19.0651 0.304633 19.796 0 20.5734 0C21.3508 0 22.0816 0.304633 22.6313 0.857744L31.1486 9.42896C31.6983 9.98187 32.001 10.7174 32.001 11.5C32.001 12.2826 31.6983 13.018 31.1484 13.5711L22.6313 22.1422C22.0816 22.6954 21.3507 23 20.5734 23ZM3 9.94957C2.15061 9.94957 1.5 10.6451 1.5 11.5C1.5 12.3549 2.15061 13 3 13L23.718 13.0503C23.995 13.0503 24.2447 13.2183 24.3507 13.4758C24.4567 13.7333 24.3981 14.0297 24.2023 14.2269L19.4841 18.975C18.8834 19.5794 18.8834 20.5629 19.4841 21.1675C19.775 21.4603 20.1619 21.6216 20.5734 21.6216C20.9849 21.6216 21.3716 21.4603 21.6626 21.1675L30.1798 12.5963C30.4709 12.3034 30.6312 11.9142 30.6312 11.5C30.6312 11.0859 30.4709 10.6966 30.18 10.4039L21.6628 1.83246C21.3718 1.53965 20.9849 1.37842 20.5734 1.37842C20.1619 1.37842 19.7751 1.53972 19.4841 1.83246C19.1938 2.12466 19.0337 2.51403 19.0337 2.92868C19.0337 3.34333 19.1937 3.73263 19.4841 4.0249L24.2023 8.773C24.3982 8.97012 24.4568 9.26658 24.3507 9.52411C24.2448 9.78157 23.9951 9.94957 23.718 9.94957H3Z" fill="url(#paint0_linear_244_58)"/>
<defs>
<linearGradient id="paint0_linear_244_58" x1="-35.335" y1="51.3718" x2="9.29468" y2="-41.9919" gradientUnits="userSpaceOnUse">
<stop offset="0.426819" stop-color="#0057D9"/>
<stop offset="0.691061" stop-color="#12C6FF"/>
</linearGradient>
</defs>
</svg>
