<svg width="9" height="9" viewBox="0 0 9 9" fill="none" xmlns="http://www.w3.org/2000/svg">
<path d="M3.33343 1.46667H2.49343C1.97071 1.46667 1.70916 1.46667 1.50951 1.5684C1.33389 1.65787 1.19121 1.80055 1.10173 1.97617C1 2.17582 1 2.43738 1 2.96009V6.50676C1 7.02947 1 7.29071 1.10173 7.49035C1.19121 7.66596 1.33389 7.8089 1.50951 7.89836C1.70896 8 1.9702 8 2.49189 8H6.04145C6.56313 8 6.824 8 7.02345 7.89836C7.19906 7.8089 7.34223 7.66582 7.43169 7.49021C7.53333 7.29076 7.53333 7.0298 7.53333 6.50811V5.66667M8 3.33333V1M8 1H5.66667M8 1L4.73333 4.26667" stroke="#999999" stroke-linecap="round" stroke-linejoin="round"/>
</svg>
