<svg width="8" height="10" viewBox="0 0 8 10" fill="none" xmlns="http://www.w3.org/2000/svg">
<path d="M3.5092 7.25751C3.5092 7.52472 3.72895 7.74134 4 7.74134C4.27105 7.74134 4.4908 7.52472 4.4908 7.25751H3.5092ZM4.4908 6.12858C4.4908 5.86137 4.27105 5.64475 4 5.64475C3.72895 5.64475 3.5092 5.86137 3.5092 6.12858H4.4908ZM1.46238 3.15401C1.46238 3.42122 1.68211 3.63784 1.95318 3.63784C2.22424 3.63784 2.44398 3.42122 2.44398 3.15401H1.46238ZM1.95318 2.516L1.46238 2.51157V2.516H1.95318ZM4 0.483914L3.99555 0.967801L4.00445 0.967724L4 0.483914ZM6.04682 2.516H6.53762V2.51157L6.04682 2.516ZM5.55603 3.15401C5.55603 3.42122 5.77577 3.63784 6.04682 3.63784C6.31787 3.63784 6.53762 3.42122 6.53762 3.15401H5.55603ZM2.19589 3.57417C2.43129 3.44168 2.51316 3.14616 2.37875 2.91411C2.24435 2.68206 1.94457 2.60135 1.70918 2.73384L2.19589 3.57417ZM0.490798 5.64475L0 5.64088V5.64475H0.490798ZM0.490798 6.61241H0C0 6.61615 3.94415e-05 6.61989 0.000131057 6.62363L0.490798 6.61241ZM3.49847 9.51538V9.03155C3.49467 9.03155 3.49088 9.03162 3.48708 9.03168L3.49847 9.51538ZM4.50146 9.51538L4.51285 9.03168C4.50906 9.03162 4.50526 9.03155 4.50146 9.03155V9.51538ZM7.5092 6.61241L7.99987 6.62363C7.99994 6.61989 8 6.61615 8 6.61241H7.5092ZM7.5092 5.64475H8V5.64081L7.5092 5.64475ZM6.29006 2.73378C6.05461 2.60135 5.7549 2.68213 5.62055 2.91422C5.4862 3.1463 5.56813 3.4418 5.80358 3.57424L6.29006 2.73378ZM1.70465 2.73643C1.4707 2.87138 1.39204 3.16775 1.52894 3.39838C1.66585 3.629 1.96648 3.70655 2.20042 3.57159L1.70465 2.73643ZM3.49847 2.74179L3.4971 3.22562H3.49847V2.74179ZM4.50146 2.74179V3.22562L4.5029 3.22561L4.50146 2.74179ZM5.79959 3.57159C6.03354 3.70655 6.33417 3.629 6.47107 3.39838C6.60797 3.16775 6.52931 2.87138 6.29536 2.73643L5.79959 3.57159ZM4.4908 7.25751V6.12858H3.5092V7.25751H4.4908ZM2.44398 3.15401V2.516H1.46238V3.15401H2.44398ZM2.44396 2.52043C2.4521 1.64351 3.15812 0.960305 3.99555 0.967801L4.00445 0.000103061C2.60169 -0.0124507 1.47528 1.1235 1.46238 2.51157L2.44396 2.52043ZM4.00445 0.967724C4.84188 0.960228 5.54791 1.64351 5.55603 2.52043L6.53762 2.51157C6.52473 1.1235 5.39832 -0.0124507 3.99555 0.000103061L4.00445 0.967724ZM5.55603 2.516V3.15401H6.53762V2.516H5.55603ZM1.70918 2.73384C0.658742 3.3251 0.00980286 4.43698 0 5.64088L0.981576 5.64862C0.988643 4.78108 1.45622 3.9905 2.19589 3.57417L1.70918 2.73384ZM0 5.64475V6.61241H0.981595V5.64475H0ZM0.000131057 6.62363C0.0448198 8.52018 1.60425 10.0427 3.50986 9.99909L3.48708 9.03168C2.1467 9.06239 1.01411 7.98661 0.981458 6.60118L0.000131057 6.62363ZM3.49847 9.99921H4.50146V9.03155H3.49847V9.99921ZM4.49008 9.99909C6.39575 10.0427 7.95518 8.52018 7.99987 6.62363L7.01854 6.60118C6.98588 7.98661 5.85332 9.06239 4.51285 9.03168L4.49008 9.99909ZM8 6.61241V5.64475H7.01841V6.61241H8ZM8 5.64081C7.99005 4.43678 7.34083 3.32484 6.29006 2.73378L5.80358 3.57424C6.54344 3.99043 7.01127 4.78101 7.01841 5.64868L8 5.64081ZM2.20042 3.57159C2.59619 3.3433 3.04321 3.22434 3.4971 3.22562L3.49991 2.25796C2.8696 2.25618 2.2506 2.42148 1.70465 2.73643L2.20042 3.57159ZM3.49847 3.22562H4.50146V2.25796H3.49847V3.22562ZM4.5029 3.22561C4.95679 3.22433 5.40381 3.3433 5.79959 3.57159L6.29536 2.73643C5.7494 2.42148 5.13041 2.25618 4.50009 2.25796L4.5029 3.22561Z" fill="#999999"/>
</svg>
