<svg width="36" height="36" viewBox="0 0 36 36" fill="none" xmlns="http://www.w3.org/2000/svg">
<path d="M20.004 20.243C19.578 20.243 19.146 20.253 18.71 20.274C18.274 21.542 18.242 23.021 18.71 25.371C19.038 27.017 21.369 31.67 23.294 33.304C23.977 33.884 24.932 34.188 25.984 34.188C28.128 34.188 30.675 32.923 32.141 30.154C35.142 24.483 28.667 20.243 20.004 20.243Z" fill="#1C6399"/>
<path d="M33.666 1.97299C33.462 1.97299 33.241 1.99399 33.003 2.03899C29.821 2.63999 23.701 7.16499 18.716 13.81C18.716 13.81 17.927 18.97 17.927 20.004C17.927 20.34 19.191 20.504 20.985 20.504C24.702 20.504 30.694 19.799 32.409 18.463C34.307 16.984 36.059 8.65899 35.897 4.38399C35.851 3.20899 35.235 1.97299 33.666 1.97299Z" fill="#1C6399"/>
<path d="M27.098 13.936L33.727 13.5C33.727 13.5 32.672 17.119 30.625 18.156C28.578 19.193 22.906 19.656 22.906 19.656C22.906 19.656 25.236 15.395 26.192 14.366C26.429 14.11 26.751 13.958 27.098 13.936ZM27.618 11.984L35.144 3.833C35.144 3.833 35.146 9.198 33.938 12.468C33.938 12.468 28.555 12.847 28.024 12.859C27.321 12.875 27.055 12.594 27.618 11.984ZM21.55 19.656L27.05 11.109C27.238 10.889 27.303 10.589 27.221 10.311L26.253 7.078L19.531 13.687L18.687 19.718L21.55 19.656ZM27.862 8.88C28.034 9.286 28.378 9.38 28.8 9.005C29.222 8.63 34.874 2.911 34.8 2.787C34.8 2.787 31.968 1.593 27 6.25C27 6.25 27.69 8.474 27.862 8.88ZM18.937 20.979L24.31 26.207C24.513 26.385 24.565 26.68 24.435 26.916L22.06 31.25C22.06 31.25 17.873 25.771 18.937 20.979ZM26.219 27.28L31.768 28.021C31.768 28.021 30.71 31.866 28.374 32.875C24.468 34.563 23.062 32.25 23.062 32.25L25.414 27.688C25.565 27.39 25.891 27.225 26.219 27.28ZM20.269 20.854L25.644 25.812C25.721 25.878 25.813 25.922 25.913 25.941L32.032 26.844C32.032 26.844 30.813 23.813 27.603 22.313C23.893 20.58 20.269 20.854 20.269 20.854Z" fill="#55ACEE"/>
<path d="M20.004 20.243C19.578 20.243 19.146 20.253 18.71 20.274C18.274 21.542 18.242 23.021 18.71 25.371C19.038 27.017 21.369 31.67 23.294 33.304C23.977 33.884 24.932 34.188 25.984 34.188C28.128 34.188 30.675 32.923 32.141 30.154C35.142 24.483 28.667 20.243 20.004 20.243ZM30.541 29.569C29.225 32.055 27.491 33.042 25.983 33.042C25.216 33.042 24.279 32.729 23.833 32.351C22.138 30.912 20.396 27.771 19.583 25.127C19.118 23.614 19.229 21.105 19.229 21.105L19.896 21.084C25.064 21.084 29.145 23.142 30.622 25.596C31.336 26.782 31.309 28.119 30.541 29.569Z" fill="#292F33"/>
<path d="M33.666 3.22299C33.897 3.22299 34.601 3.22299 34.647 4.43099C34.749 7.11199 34.053 10.492 33.25 13.313C32.709 15.214 31.664 16.605 31.156 17C30.596 17.436 29.293 18.238 27.437 18.563C25.407 18.918 23.23 19.396 20.981 19.396C20.154 19.396 19.548 19.415 19.187 19.375C19.318 18.157 19.676 15.824 19.904 14.311C23.672 9.37099 29.615 3.94999 33.235 3.26699C33.39 3.23799 33.535 3.22299 33.666 3.22299ZM33.666 1.97299C33.462 1.97299 33.241 1.99399 33.003 2.03899C29.821 2.63999 23.701 7.16499 18.716 13.81C18.716 13.81 17.927 18.97 17.927 20.004C17.927 20.34 19.191 20.504 20.985 20.504C24.702 20.504 30.694 19.799 32.409 18.463C34.307 16.984 36.059 8.65899 35.897 4.38399C35.851 3.20899 35.235 1.97299 33.666 1.97299Z" fill="#292F33"/>
<path d="M3.902 30.154C5.368 32.923 7.914 34.188 10.059 34.188C11.111 34.188 12.066 33.884 12.749 33.304C14.674 31.671 17.005 27.018 17.333 25.371C17.801 23.021 17.769 21.543 17.333 20.274C16.897 20.253 16.465 20.243 16.039 20.243C7.374 20.243 0.900003 24.483 3.902 30.154Z" fill="#1C6399"/>
<path d="M2.376 1.97299C0.807004 1.97299 0.190004 3.20899 0.146004 4.38299C-0.0159962 8.65799 1.736 16.984 3.634 18.462C5.349 19.798 11.34 20.503 15.058 20.503C16.852 20.503 18.116 20.339 18.116 20.003C18.116 18.97 17.327 13.809 17.327 13.809C12.341 7.16499 6.22 2.63999 3.039 2.03899C2.801 1.99399 2.58 1.97299 2.376 1.97299Z" fill="#1C6399"/>
<path d="M8.943 13.936L2.315 13.5C2.315 13.5 3.37 17.119 5.417 18.156C7.464 19.193 13.136 19.656 13.136 19.656C13.136 19.656 10.806 15.395 9.85 14.366C9.613 14.11 9.291 13.958 8.943 13.936ZM8.424 11.984L0.898003 3.833C0.898003 3.833 0.896003 9.198 2.104 12.468C2.104 12.468 7.487 12.847 8.018 12.859C8.721 12.875 8.987 12.594 8.424 11.984ZM14.492 19.656L8.992 11.109C8.804 10.889 8.739 10.589 8.821 10.311L9.789 7.078L16.511 13.687L17.355 19.718L14.492 19.656ZM8.179 8.88C8.007 9.286 7.663 9.38 7.241 9.005C6.819 8.63 1.167 2.911 1.241 2.787C1.241 2.787 4.073 1.593 9.041 6.25C9.042 6.25 8.351 8.474 8.179 8.88ZM17.105 20.979L11.732 26.207C11.529 26.385 11.477 26.68 11.607 26.916L13.982 31.249C13.981 31.25 18.169 25.771 17.105 20.979ZM9.822 27.28L4.273 28.021C4.273 28.021 5.331 31.866 7.667 32.875C11.573 34.563 12.979 32.25 12.979 32.25L10.627 27.688C10.477 27.39 10.151 27.225 9.822 27.28ZM15.773 20.854L10.398 25.812C10.321 25.878 10.229 25.922 10.129 25.941L4.01 26.844C4.01 26.844 5.229 23.813 8.439 22.313C12.148 20.58 15.773 20.854 15.773 20.854Z" fill="#55ACEE"/>
<path d="M3.902 30.154C5.368 32.923 7.914 34.188 10.059 34.188C11.111 34.188 12.066 33.884 12.749 33.304C14.674 31.671 17.005 27.018 17.333 25.371C17.801 23.021 17.769 21.543 17.333 20.274C16.897 20.253 16.465 20.243 16.039 20.243C7.374 20.243 0.900003 24.483 3.902 30.154ZM5.42 25.595C6.897 23.141 10.978 21.083 16.146 21.083L16.813 21.104C16.813 21.104 16.924 23.614 16.459 25.126C15.646 27.77 13.904 30.911 12.209 32.35C11.763 32.729 10.826 33.041 10.059 33.041C8.551 33.041 6.817 32.055 5.501 29.568C4.733 28.119 4.706 26.782 5.42 25.595Z" fill="#292F33"/>
<path d="M2.376 3.22299C2.507 3.22299 2.652 3.23799 2.807 3.26699C6.426 3.94999 12.37 9.37099 16.138 14.311C16.366 15.824 16.724 18.157 16.855 19.375C16.494 19.415 15.888 19.396 15.061 19.396C12.812 19.396 10.635 18.918 8.605 18.563C6.749 18.238 5.446 17.436 4.886 17C4.378 16.604 3.333 15.214 2.792 13.313C1.989 10.492 1.293 7.11199 1.395 4.43099C1.441 3.22299 2.144 3.22299 2.376 3.22299ZM2.376 1.97299C0.807004 1.97299 0.190004 3.20899 0.146004 4.38299C-0.0159962 8.65799 1.736 16.984 3.634 18.462C5.349 19.798 11.34 20.503 15.058 20.503C16.852 20.503 18.116 20.339 18.116 20.003C18.116 18.97 17.327 13.809 17.327 13.809C12.341 7.16499 6.22 2.63999 3.039 2.03899C2.801 1.99399 2.58 1.97299 2.376 1.97299Z" fill="#292F33"/>
<path d="M21.887 4.762C21.637 4.624 21.324 4.715 21.186 4.965L18.446 9.945C18.428 9.978 18.424 10.013 18.414 10.047C18.287 10.04 18.17 10.029 18.021 10.029C17.873 10.029 17.755 10.039 17.629 10.047C17.619 10.013 17.615 9.978 17.597 9.945L14.857 4.965C14.719 4.715 14.405 4.624 14.155 4.762C13.905 4.899 13.814 5.213 13.952 5.463L16.607 10.289C15.428 11.073 17.757 13.727 16.988 19.493C15.955 27.243 18.021 29.31 18.021 29.31C18.021 29.31 20.088 27.243 19.054 19.493C18.285 13.727 20.614 11.073 19.435 10.289L22.091 5.463C22.228 5.213 22.137 4.899 21.887 4.762Z" fill="#292F33"/>
</svg>
