<svg width="25" height="25" viewBox="0 0 25 25" fill="none" xmlns="http://www.w3.org/2000/svg">
<path d="M6.55728 7.30646C6.55728 7.9211 7.05747 8.41937 7.67448 8.41937C8.29148 8.41937 8.79168 7.9211 8.79168 7.30646H6.55728ZM7.67448 6.96072H8.79169L8.79166 6.95453L7.67448 6.96072ZM12.4874 2.11292V1L12.4812 1.00003L12.4874 2.11292ZM18.5023 2.11292L18.5085 1.00001H18.5023V2.11292ZM23.3151 6.96072L22.1979 6.95453V6.96072H23.3151ZM23.3151 12.8457H22.1979L22.1981 12.852L23.3151 12.8457ZM18.5023 17.6936V18.8065H18.5085L18.5023 17.6936ZM18.1016 16.5806C17.4846 16.5806 16.9844 17.0789 16.9844 17.6936C16.9844 18.3082 17.4846 18.8065 18.1016 18.8065V16.5806ZM7.67448 8.41937C8.29148 8.41937 8.79168 7.9211 8.79168 7.30646C8.79168 6.69183 8.29148 6.19356 7.67448 6.19356V8.41937ZM7.27378 7.30646V6.19355L7.26761 6.19357L7.27378 7.30646ZM2.4609 12.1543H3.57811L3.57808 12.148L2.4609 12.1543ZM2.4609 18.0408L3.5781 18.0466V18.0408H2.4609ZM7.27378 22.8871L7.26761 24H7.27378V22.8871ZM13.2887 22.8871V24H13.2949L13.2887 22.8871ZM18.1016 18.0393H16.9844L16.9845 18.0455L18.1016 18.0393ZM19.2188 17.6936C19.2188 17.0789 18.7187 16.5806 18.1016 16.5806C17.4846 16.5806 16.9844 17.0789 16.9844 17.6936H19.2188ZM7.67448 6.19356C7.05747 6.19356 6.55728 6.69183 6.55728 7.30646C6.55728 7.9211 7.05747 8.41937 7.67448 8.41937V6.19356ZM13.2888 7.30646L13.2949 6.19356H13.2888V7.30646ZM18.1017 12.1543L16.9845 12.148V12.1543H18.1017ZM16.9844 17.6936C16.9844 18.3082 17.4846 18.8065 18.1016 18.8065C18.7186 18.8065 19.2188 18.3082 19.2188 17.6936H16.9844ZM8.79168 7.30646L8.79169 6.96072H6.55728V7.30646H8.79168ZM8.79166 6.95453C8.78618 5.97105 9.17309 5.0257 9.86739 4.32642L8.27867 2.76128C7.16772 3.8803 6.54853 5.3931 6.5573 6.96691L8.79166 6.95453ZM9.86739 4.32642C10.5615 3.62715 11.5062 3.23124 12.4935 3.22581L12.4812 1.00003C10.9013 1.00873 9.38967 1.64226 8.27867 2.76128L9.86739 4.32642ZM12.4874 3.22582H18.5023V1.00001L12.4874 1V3.22582ZM18.4962 3.22581C19.4835 3.23124 20.4282 3.62715 21.1223 4.32642L22.711 2.76128C21.6 1.64226 20.0884 1.00871 18.5085 1.00001L18.4962 3.22581ZM21.1223 4.32642C21.8166 5.0257 22.2033 5.97105 22.1979 6.95453L24.4323 6.96691C24.4411 5.3931 23.8219 3.8803 22.711 2.76128L21.1223 4.32642ZM22.1979 6.96072V12.8457H24.4323V6.96072H22.1979ZM22.1981 12.852C22.2035 13.8353 21.8166 14.7807 21.1223 15.4801L22.711 17.0453C23.8219 15.9261 24.4411 14.4133 24.4323 12.8395L22.1981 12.852ZM21.1223 15.4801C20.4282 16.1793 19.4835 16.5752 18.4962 16.5806L18.5085 18.8065C20.0884 18.7977 21.6 18.1642 22.711 17.0453L21.1223 15.4801ZM18.5023 16.5806H18.1016V18.8065H18.5023V16.5806ZM7.67448 6.19356L7.27378 6.19355V8.41937H7.67448V6.19356ZM7.26761 6.19357C5.68773 6.20227 4.17603 6.83581 3.06509 7.95482L4.65378 9.51997C5.34802 8.82069 6.29267 8.42478 7.27995 8.41935L7.26761 6.19357ZM3.06509 7.95482C1.95414 9.07384 1.33495 10.5867 1.34372 12.1605L3.57808 12.148C3.5726 11.1647 3.95954 10.2193 4.65378 9.51997L3.06509 7.95482ZM1.3437 12.1543V18.0408H3.5781L3.57811 12.1543H1.3437ZM1.34372 18.035C1.32646 21.3115 3.97841 23.9819 7.26761 24L7.27996 21.7742C5.22451 21.7629 3.56731 20.0942 3.5781 18.0466L1.34372 18.035ZM7.27378 24H13.2887V21.7742H7.27378V24ZM13.2949 24C14.8748 23.9912 16.3864 23.3578 17.4974 22.2388L15.9087 20.6736C15.2146 21.3728 14.2699 21.7687 13.2826 21.7742L13.2949 24ZM17.4974 22.2388C18.6083 21.1197 19.2275 19.6069 19.2188 18.0331L16.9845 18.0455C16.9899 19.0289 16.603 19.9743 15.9087 20.6736L17.4974 22.2388ZM19.2188 18.0393V17.6936H16.9844V18.0393H19.2188ZM7.67448 8.41937H13.2888V6.19356H7.67448V8.41937ZM13.2826 8.41935C14.2699 8.42478 15.2146 8.82069 15.9087 9.51997L17.4974 7.95482C16.3864 6.83581 14.8748 6.20226 13.2949 6.19356L13.2826 8.41935ZM15.9087 9.51997C16.603 10.2193 16.9899 11.1647 16.9845 12.148L19.2188 12.1605C19.2275 10.5867 18.6083 9.07384 17.4974 7.95482L15.9087 9.51997ZM16.9845 12.1543L16.9844 17.6936H19.2188L19.2189 12.1543H16.9845Z" fill="#ED9B60"/>
<path d="M6.55728 7.30646C6.55728 7.9211 7.05747 8.41937 7.67448 8.41937M6.55728 7.30646H8.79168M6.55728 7.30646C6.55728 6.69183 7.05747 6.19356 7.67448 6.19356M6.55728 7.30646V6.96072H8.79169M7.67448 8.41937C8.29148 8.41937 8.79168 7.9211 8.79168 7.30646M7.67448 8.41937V6.19356M7.67448 8.41937H7.27378V6.19355M7.67448 8.41937H13.2888V6.19356M8.79168 7.30646C8.79168 6.69183 8.29148 6.19356 7.67448 6.19356M8.79168 7.30646L8.79169 6.96072M8.79169 6.96072H7.67448L8.79166 6.95453M8.79169 6.96072L8.79166 6.95453M8.79166 6.95453C8.78618 5.97105 9.17309 5.0257 9.86739 4.32642M8.79166 6.95453L6.5573 6.96691C6.54853 5.3931 7.16772 3.8803 8.27867 2.76128M9.07302 3.54384L9.86739 4.32642M9.86739 4.32642L8.27867 2.76128M9.86739 4.32642C10.5615 3.62715 11.5062 3.23124 12.4935 3.22581L12.4812 1.00003M12.4874 1V2.11292L12.4812 1.00003M12.4874 1L12.4812 1.00003M12.4874 1L18.5023 1.00001M12.4874 1V3.22582H18.5023V1.00001M12.4812 1.00003C10.9013 1.00873 9.38967 1.64226 8.27867 2.76128M18.5085 1.00001L18.5023 2.11292V1.00001M18.5085 1.00001H18.5023M18.5085 1.00001C20.0884 1.00871 21.6 1.64226 22.711 2.76128M18.5085 1.00001L18.4962 3.22581C19.4835 3.23124 20.4282 3.62715 21.1223 4.32642M21.9167 3.54384L21.1223 4.32642M21.1223 4.32642L22.711 2.76128M21.1223 4.32642C21.8166 5.0257 22.2033 5.97105 22.1979 6.95453M22.1979 6.95453L23.3151 6.96072H22.1979M22.1979 6.95453V6.96072M22.1979 6.95453L24.4323 6.96691C24.4411 5.3931 23.8219 3.8803 22.711 2.76128M22.1979 6.96072V12.8457M22.1979 6.96072H24.4323V12.8457H22.1979M22.1979 12.8457H23.3151L22.1981 12.852M22.1979 12.8457L22.1981 12.852M22.1981 12.852C22.2035 13.8353 21.8166 14.7807 21.1223 15.4801M22.1981 12.852L24.4323 12.8395C24.4411 14.4133 23.8219 15.9261 22.711 17.0453M21.9167 16.2627L21.1223 15.4801M21.1223 15.4801L22.711 17.0453M21.1223 15.4801C20.4282 16.1793 19.4835 16.5752 18.4962 16.5806L18.5085 18.8065M18.5023 18.8065V17.6936L18.5085 18.8065M18.5023 18.8065H18.5085M18.5023 18.8065H18.1016M18.5023 18.8065V16.5806H18.1016M18.5085 18.8065C20.0884 18.7977 21.6 18.1642 22.711 17.0453M18.1016 16.5806C17.4846 16.5806 16.9844 17.0789 16.9844 17.6936M18.1016 16.5806V18.8065M18.1016 16.5806C18.7187 16.5806 19.2188 17.0789 19.2188 17.6936M16.9844 17.6936C16.9844 18.3082 17.4846 18.8065 18.1016 18.8065M16.9844 17.6936H19.2188M16.9844 17.6936V18.0393M16.9844 17.6936L16.9845 12.1543M18.1016 18.8065C18.7186 18.8065 19.2188 18.3082 19.2188 17.6936M7.67448 6.19356L7.27378 6.19355M7.67448 6.19356H13.2888M7.27378 6.19355V7.30646L7.26761 6.19357M7.27378 6.19355L7.26761 6.19357M7.26761 6.19357C5.68773 6.20227 4.17603 6.83581 3.06509 7.95482M7.26761 6.19357L7.27995 8.41935C6.29267 8.42478 5.34802 8.82069 4.65378 9.51997M3.85944 8.73739L4.65378 9.51997M4.65378 9.51997L3.06509 7.95482M4.65378 9.51997C3.95954 10.2193 3.5726 11.1647 3.57808 12.148M3.57811 12.1543H2.4609L3.57808 12.148M3.57811 12.1543L3.57808 12.148M3.57811 12.1543L3.5781 18.0408M3.57811 12.1543H1.3437V18.0408H3.5781M3.57808 12.148L1.34372 12.1605C1.33495 10.5867 1.95414 9.07384 3.06509 7.95482M3.5781 18.0466L2.4609 18.0408H3.5781M3.5781 18.0466V18.0408M3.5781 18.0466C3.56731 20.0942 5.22451 21.7629 7.27996 21.7742L7.26761 24M3.5781 18.0466L1.34372 18.035C1.32646 21.3115 3.97841 23.9819 7.26761 24M7.26761 24L7.27378 22.8871V24M7.26761 24H7.27378M7.27378 24H13.2887M7.27378 24V21.7742H13.2887V24M13.2887 24V22.8871L13.2949 24M13.2887 24H13.2949M13.2949 24C14.8748 23.9912 16.3864 23.3578 17.4974 22.2388M13.2949 24L13.2826 21.7742C14.2699 21.7687 15.2146 21.3728 15.9087 20.6736M16.7031 21.4562L15.9087 20.6736M15.9087 20.6736L17.4974 22.2388M15.9087 20.6736C16.603 19.9743 16.9899 19.0289 16.9845 18.0455M16.9844 18.0393H18.1016L16.9845 18.0455M16.9844 18.0393L16.9845 18.0455M16.9844 18.0393H19.2188V17.6936M16.9845 18.0455L19.2188 18.0331C19.2275 19.6069 18.6083 21.1197 17.4974 22.2388M19.2188 17.6936L19.2189 12.1543H16.9845M13.2949 6.19356L13.2888 7.30646V6.19356M13.2949 6.19356H13.2888M13.2949 6.19356C14.8748 6.20226 16.3864 6.83581 17.4974 7.95482M13.2949 6.19356L13.2826 8.41935C14.2699 8.42478 15.2146 8.82069 15.9087 9.51997M16.7031 8.73739L17.4974 7.95482M17.4974 7.95482L15.9087 9.51997M17.4974 7.95482C18.6083 9.07384 19.2275 10.5867 19.2188 12.1605L16.9845 12.148M16.9845 12.148L18.1017 12.1543H16.9845M16.9845 12.148V12.1543M16.9845 12.148C16.9899 11.1647 16.603 10.2193 15.9087 9.51997" stroke="#ED9B60"/>
</svg>
