<svg width="15" height="15" viewBox="0 0 15 15" fill="none" xmlns="http://www.w3.org/2000/svg">
<path fill-rule="evenodd" clip-rule="evenodd" d="M7.02976 0.00614856C6.98188 0.0117777 6.81853 0.0286652 6.66739 0.0436763C4.90905 0.219118 3.13757 1.12541 1.93969 2.46328C0.615069 3.94281 -0.0580362 5.77885 0.00392326 7.73499C0.111883 11.1134 2.43536 13.974 5.73142 14.7883C7.66437 15.2659 9.78977 14.9253 11.4739 13.8689C13.1544 12.8134 14.3306 11.1875 14.801 9.26799C14.9624 8.61032 15 8.27539 15 7.49762C15 6.71986 14.9624 6.38493 14.801 5.72725C14.0575 2.6922 11.5566 0.459296 8.4445 0.05212C8.17788 0.0174069 7.20812 -0.0135535 7.02976 0.00614856ZM8.3065 1.45847C9.3523 1.59357 10.3314 1.99606 11.2083 2.65092C11.5171 2.88171 12.1245 3.48872 12.3555 3.79739C12.8821 4.50197 13.2717 5.3304 13.4482 6.12317C13.6491 7.02853 13.6491 7.96672 13.4482 8.87208C13.0595 10.6181 11.8288 12.168 10.1972 12.9654C9.60765 13.2534 8.99932 13.442 8.33184 13.5433C7.9338 13.6043 7.07763 13.6043 6.67959 13.5433C4.85085 13.2656 3.30749 12.2683 2.33585 10.7353C2.13495 10.4192 1.8721 9.8675 1.74067 9.48566C1.51442 8.83173 1.41679 8.23035 1.41679 7.49762C1.41679 6.52284 1.60548 5.6916 2.02324 4.83315C2.34243 4.1783 2.66724 3.72609 3.19953 3.19413C3.73182 2.66217 4.18431 2.33756 4.83958 2.01857C5.92199 1.49225 7.09922 1.30273 8.3065 1.45847ZM7.22972 4.01693C7.01943 4.08541 6.9002 4.2055 6.842 4.40628C6.8082 4.52074 6.80445 4.78249 6.81008 6.3868C6.81759 8.23504 6.81759 8.23598 6.87204 8.33824C6.94057 8.46678 7.072 8.58311 7.19686 8.62721C7.32078 8.67037 7.69066 8.67037 7.81458 8.62721C7.93943 8.58311 8.07086 8.46678 8.13939 8.33824C8.19384 8.23598 8.19384 8.23504 8.20135 6.3868C8.20886 4.36781 8.20886 4.36593 8.06523 4.19612C7.94882 4.05727 7.82396 4.0113 7.54327 4.00379C7.40527 4.00004 7.26445 4.00567 7.22972 4.01693ZM7.30482 9.87125C7.12739 9.92942 6.95184 10.0805 6.86641 10.2484C6.80069 10.3798 6.78943 10.6171 6.84294 10.7766C6.93118 11.044 7.22127 11.2504 7.50572 11.2504C7.79017 11.2504 8.08025 11.044 8.1685 10.7766C8.22201 10.6171 8.21074 10.3798 8.14503 10.2484C8.08401 10.1283 7.93756 9.98008 7.81833 9.91816C7.70943 9.86187 7.41559 9.83466 7.30482 9.87125Z" fill="#ED9B60"/>
</svg>
