<svg width="10" height="10" viewBox="0 0 10 10" fill="none" xmlns="http://www.w3.org/2000/svg">
<path d="M3.44503 7.25806C3.44503 7.52529 3.66661 7.74194 3.93995 7.74194C4.21328 7.74194 4.43487 7.52529 4.43487 7.25806H3.44503ZM4.43487 6.12903C4.43487 5.86181 4.21328 5.64516 3.93995 5.64516C3.66661 5.64516 3.44503 5.86181 3.44503 6.12903H4.43487ZM5.29924 2.8129C5.29924 3.08013 5.52083 3.29677 5.79416 3.29677C6.06748 3.29677 6.28907 3.08013 6.28907 2.8129H5.29924ZM5.79416 2.51613H6.28907C6.28907 2.50946 6.28894 2.50279 6.28867 2.49613L5.79416 2.51613ZM7.64909 0.48387L7.67258 0.000547588C7.65694 -0.000181445 7.6413 -0.000181453 7.62566 0.000541127L7.64909 0.48387ZM9.50329 2.51613L9.00884 2.49613C9.00851 2.50279 9.00838 2.50946 9.00838 2.51613H9.50329ZM9.00838 2.8129C9.00838 3.08013 9.22997 3.29677 9.50329 3.29677C9.77661 3.29677 9.9982 3.08013 9.9982 2.8129H9.00838ZM5.79416 2.8129L5.93992 2.35048C5.93583 2.34925 5.93174 2.34807 5.92758 2.34695L5.79416 2.8129ZM2.08507 2.8129L1.95164 2.34695C1.94748 2.34809 1.94332 2.34928 1.93919 2.35053L2.08507 2.8129ZM0.495904 5H0.990901L0.99073 4.9909L0.495904 5ZM0.495904 7.25806L0.990605 7.27219C0.990743 7.26748 0.990816 7.26277 0.990816 7.25806H0.495904ZM2.61521 9.51613L2.59961 9.99974C2.60481 9.99994 2.61001 10 2.61521 10V9.51613ZM5.26467 9.51613V10C5.26988 10 5.27509 9.99994 5.28024 9.99974L5.26467 9.51613ZM7.38401 7.25806H6.8891C6.8891 7.26277 6.88916 7.26748 6.8893 7.27219L7.38401 7.25806ZM7.38401 5L6.8891 4.9909V5H7.38401ZM4.43487 7.25806V6.12903H3.44503V7.25806H4.43487ZM6.28907 2.8129V2.51613H5.29924V2.8129H6.28907ZM6.28867 2.49613C6.25396 1.67647 6.88494 1.0036 7.67244 0.967199L7.62566 0.000541127C6.27125 0.0631411 5.24348 1.20761 5.29971 2.53612L6.28867 2.49613ZM7.62553 0.967193C8.41283 1.00384 9.04348 1.67665 9.00884 2.49613L9.9978 2.53613C10.054 1.20791 9.02672 0.0635799 7.67258 0.000547588L7.62553 0.967193ZM9.00838 2.51613V2.8129H9.9982V2.51613H9.00838ZM5.92758 2.34695C5.71134 2.28775 5.48797 2.25783 5.26348 2.25806L5.26401 3.22581C5.39777 3.22566 5.53152 3.24348 5.66073 3.27886L5.92758 2.34695ZM5.26348 2.25806H2.61521L2.61469 3.22581H5.26401L5.26348 2.25806ZM2.61521 2.25806C2.39077 2.25783 2.16793 2.28775 1.95164 2.34695L2.21849 3.27886C2.34772 3.24348 2.48096 3.22566 2.61469 3.22581L2.61521 2.25806ZM1.93919 2.35053C0.762661 2.70534 -0.022275 3.79664 0.00107822 5.0091L0.99073 4.9909C0.975407 4.19555 1.48967 3.49883 2.23094 3.27528L1.93919 2.35053ZM0.000992637 5V7.25806H0.990816L0.990901 5H0.000992637ZM0.00120377 7.24394C-0.042487 8.70929 1.10837 9.95381 2.59961 9.99974L2.63081 9.03252C1.70838 9.00407 0.962131 8.22723 0.990605 7.27219L0.00120377 7.24394ZM2.61521 10H5.26467V9.03226H2.61521V10ZM5.28024 9.99974C6.77151 9.95381 7.92234 8.70929 7.87866 7.24394L6.8893 7.27219C6.91774 8.22723 6.17148 9.00407 5.24909 9.03252L5.28024 9.99974ZM7.87892 7.25806V5H6.8891V7.25806H7.87892ZM7.87879 5.0091C7.90208 3.79639 7.11676 2.705 5.93992 2.35048L5.64845 3.27532C6.3899 3.49868 6.90434 4.19542 6.8891 4.9909L7.87879 5.0091Z" fill="#999999"/>
</svg>
