<svg width="17" height="18" viewBox="0 0 17 18" fill="none" xmlns="http://www.w3.org/2000/svg">
<path fill-rule="evenodd" clip-rule="evenodd" d="M13.502 3.17353C13.502 1.4588 11.8086 0.253052 10.1799 0.808152L1.8144 3.65941C0.799251 4.0054 0.117188 4.95599 0.117188 6.02478V14.8335C0.117188 16.2142 1.2408 17.3335 2.62684 17.3335H14.3385C15.7246 17.3335 16.8482 16.2142 16.8482 14.8335V7.33351C16.8482 5.9528 15.7246 4.83351 14.3385 4.83351H5.16879L12.7534 4.03467C13.179 3.98985 13.502 3.63228 13.502 3.20596V3.17353ZM12.2472 12.3333C12.9402 12.3333 13.502 11.7737 13.502 11.0833C13.502 10.393 12.9402 9.8333 12.2472 9.8333C11.5541 9.8333 10.9924 10.393 10.9924 11.0833C10.9924 11.7737 11.5541 12.3333 12.2472 12.3333Z" fill="#ED9B60"/>
</svg>
